<mxfile host="app.diagrams.net" modified="2023-07-05T08:08:29.387Z" agent="Mozilla/5.0 (Windows NT 10.0; Win64; x64; rv:109.0) Gecko/20100101 Firefox/114.0" etag="AAOzXZKyUwJdKTS91hgP" version="21.5.2" type="github">
  <diagram name="Page-1" id="xjvxwk_3kaTPLV7VPJxn">
    <mxGraphModel dx="4218" dy="2791" grid="1" gridSize="10" guides="1" tooltips="1" connect="1" arrows="1" fold="1" page="1" pageScale="1" pageWidth="1169" pageHeight="827" math="0" shadow="0">
      <root>
        <mxCell id="0" />
        <mxCell id="1" parent="0" />
        <mxCell id="IXw6Qi-PNi6ADlv29cn4-34" style="rounded=0;orthogonalLoop=1;jettySize=auto;html=1;fillColor=#6a00ff;strokeColor=#3700CC;" parent="1" source="IXw6Qi-PNi6ADlv29cn4-1" target="IXw6Qi-PNi6ADlv29cn4-30" edge="1">
          <mxGeometry relative="1" as="geometry">
            <Array as="points">
              <mxPoint x="760" y="710" />
            </Array>
          </mxGeometry>
        </mxCell>
        <mxCell id="IXw6Qi-PNi6ADlv29cn4-37" style="rounded=0;orthogonalLoop=1;jettySize=auto;html=1;entryX=0;entryY=0.5;entryDx=0;entryDy=0;fillColor=#6a00ff;strokeColor=#3700CC;" parent="1" source="IXw6Qi-PNi6ADlv29cn4-1" target="IXw6Qi-PNi6ADlv29cn4-35" edge="1">
          <mxGeometry relative="1" as="geometry" />
        </mxCell>
        <mxCell id="IXw6Qi-PNi6ADlv29cn4-61" style="edgeStyle=none;rounded=0;orthogonalLoop=1;jettySize=auto;html=1;fillColor=#6a00ff;strokeColor=#3700CC;" parent="1" source="IXw6Qi-PNi6ADlv29cn4-1" target="IXw6Qi-PNi6ADlv29cn4-49" edge="1">
          <mxGeometry relative="1" as="geometry" />
        </mxCell>
        <mxCell id="IXw6Qi-PNi6ADlv29cn4-66" style="edgeStyle=none;rounded=0;orthogonalLoop=1;jettySize=auto;html=1;entryX=0;entryY=0;entryDx=0;entryDy=0;fillColor=#6a00ff;strokeColor=#3700CC;" parent="1" source="IXw6Qi-PNi6ADlv29cn4-1" target="IXw6Qi-PNi6ADlv29cn4-50" edge="1">
          <mxGeometry relative="1" as="geometry" />
        </mxCell>
        <mxCell id="IXw6Qi-PNi6ADlv29cn4-67" style="edgeStyle=orthogonalEdgeStyle;rounded=0;orthogonalLoop=1;jettySize=auto;html=1;" parent="1" source="IXw6Qi-PNi6ADlv29cn4-1" target="IXw6Qi-PNi6ADlv29cn4-13" edge="1">
          <mxGeometry relative="1" as="geometry">
            <Array as="points">
              <mxPoint x="330" y="715" />
              <mxPoint x="330" y="-190" />
              <mxPoint x="440" y="-190" />
              <mxPoint x="440" y="-559" />
            </Array>
          </mxGeometry>
        </mxCell>
        <mxCell id="IXw6Qi-PNi6ADlv29cn4-69" style="edgeStyle=none;rounded=0;orthogonalLoop=1;jettySize=auto;html=1;entryX=0.036;entryY=0.779;entryDx=0;entryDy=0;fillColor=#6a00ff;strokeColor=#3700CC;entryPerimeter=0;" parent="1" source="IXw6Qi-PNi6ADlv29cn4-1" target="IXw6Qi-PNi6ADlv29cn4-68" edge="1">
          <mxGeometry relative="1" as="geometry" />
        </mxCell>
        <mxCell id="IXw6Qi-PNi6ADlv29cn4-82" style="edgeStyle=elbowEdgeStyle;rounded=0;orthogonalLoop=1;jettySize=auto;html=1;" parent="1" source="IXw6Qi-PNi6ADlv29cn4-1" target="IXw6Qi-PNi6ADlv29cn4-80" edge="1">
          <mxGeometry relative="1" as="geometry">
            <Array as="points">
              <mxPoint x="300" y="200" />
            </Array>
          </mxGeometry>
        </mxCell>
        <mxCell id="ZU9HFq3ehsjZUplSAfVW-4" style="rounded=0;orthogonalLoop=1;jettySize=auto;html=1;fillColor=#6a00ff;strokeColor=#3700CC;" parent="1" source="IXw6Qi-PNi6ADlv29cn4-1" target="IXw6Qi-PNi6ADlv29cn4-28" edge="1">
          <mxGeometry relative="1" as="geometry" />
        </mxCell>
        <mxCell id="ZU9HFq3ehsjZUplSAfVW-11" style="rounded=0;orthogonalLoop=1;jettySize=auto;html=1;entryX=0;entryY=0.5;entryDx=0;entryDy=0;fillColor=#6a00ff;strokeColor=#3700CC;" parent="1" source="IXw6Qi-PNi6ADlv29cn4-1" target="IXw6Qi-PNi6ADlv29cn4-25" edge="1">
          <mxGeometry relative="1" as="geometry" />
        </mxCell>
        <mxCell id="9e4sZm5anjRUrG5Lg-NS-45" style="rounded=0;orthogonalLoop=1;jettySize=auto;html=1;" parent="1" source="IXw6Qi-PNi6ADlv29cn4-1" target="9e4sZm5anjRUrG5Lg-NS-40" edge="1">
          <mxGeometry relative="1" as="geometry" />
        </mxCell>
        <mxCell id="ErWA6TdymM7Qu1k1ahxK-10" style="rounded=0;orthogonalLoop=1;jettySize=auto;html=1;exitX=1;exitY=0.3333333333333333;exitDx=0;exitDy=0;exitPerimeter=0;entryX=0;entryY=0.5;entryDx=0;entryDy=0;strokeColor=#3700CC;" parent="1" source="IXw6Qi-PNi6ADlv29cn4-1" target="ErWA6TdymM7Qu1k1ahxK-9" edge="1">
          <mxGeometry relative="1" as="geometry" />
        </mxCell>
        <mxCell id="ErWA6TdymM7Qu1k1ahxK-18" style="rounded=0;orthogonalLoop=1;jettySize=auto;html=1;strokeColor=#3700CC;" parent="1" source="IXw6Qi-PNi6ADlv29cn4-1" target="ErWA6TdymM7Qu1k1ahxK-16" edge="1">
          <mxGeometry relative="1" as="geometry" />
        </mxCell>
        <mxCell id="IXw6Qi-PNi6ADlv29cn4-1" value="Staff Gudang" style="shape=umlActor;verticalLabelPosition=bottom;verticalAlign=top;html=1;fontSize=27;" parent="1" vertex="1">
          <mxGeometry x="460" y="600" width="95" height="190" as="geometry" />
        </mxCell>
        <mxCell id="IXw6Qi-PNi6ADlv29cn4-6" value="frame" style="shape=umlFrame;whiteSpace=wrap;html=1;pointerEvents=0;" parent="1" vertex="1">
          <mxGeometry x="640" y="-760" width="1070" height="2080" as="geometry" />
        </mxCell>
        <mxCell id="IXw6Qi-PNi6ADlv29cn4-13" value="Login" style="ellipse;whiteSpace=wrap;html=1;fontSize=20;fillColor=#f5f5f5;fontColor=#333333;strokeColor=#666666;" parent="1" vertex="1">
          <mxGeometry x="810" y="-614" width="160" height="110" as="geometry" />
        </mxCell>
        <mxCell id="IXw6Qi-PNi6ADlv29cn4-53" style="edgeStyle=none;rounded=0;orthogonalLoop=1;jettySize=auto;html=1;entryX=0;entryY=1;entryDx=0;entryDy=0;fillColor=#e51400;strokeColor=#B20000;" parent="1" source="IXw6Qi-PNi6ADlv29cn4-23" target="IXw6Qi-PNi6ADlv29cn4-13" edge="1">
          <mxGeometry relative="1" as="geometry" />
        </mxCell>
        <mxCell id="IXw6Qi-PNi6ADlv29cn4-64" style="edgeStyle=none;rounded=0;orthogonalLoop=1;jettySize=auto;html=1;entryX=0;entryY=0;entryDx=0;entryDy=0;fillColor=#e51400;strokeColor=#B20000;" parent="1" source="IXw6Qi-PNi6ADlv29cn4-23" target="IXw6Qi-PNi6ADlv29cn4-49" edge="1">
          <mxGeometry relative="1" as="geometry" />
        </mxCell>
        <mxCell id="IXw6Qi-PNi6ADlv29cn4-74" style="edgeStyle=none;rounded=0;orthogonalLoop=1;jettySize=auto;html=1;entryX=0;entryY=0.5;entryDx=0;entryDy=0;fillColor=#e51400;strokeColor=#B20000;" parent="1" source="IXw6Qi-PNi6ADlv29cn4-23" target="IXw6Qi-PNi6ADlv29cn4-73" edge="1">
          <mxGeometry relative="1" as="geometry" />
        </mxCell>
        <mxCell id="IXw6Qi-PNi6ADlv29cn4-76" style="edgeStyle=none;rounded=0;orthogonalLoop=1;jettySize=auto;html=1;fillColor=#e51400;strokeColor=#B20000;" parent="1" source="IXw6Qi-PNi6ADlv29cn4-23" target="IXw6Qi-PNi6ADlv29cn4-71" edge="1">
          <mxGeometry relative="1" as="geometry" />
        </mxCell>
        <mxCell id="IXw6Qi-PNi6ADlv29cn4-77" style="edgeStyle=none;rounded=0;orthogonalLoop=1;jettySize=auto;html=1;fillColor=#e51400;strokeColor=#B20000;" parent="1" source="IXw6Qi-PNi6ADlv29cn4-23" target="IXw6Qi-PNi6ADlv29cn4-70" edge="1">
          <mxGeometry relative="1" as="geometry" />
        </mxCell>
        <mxCell id="IXw6Qi-PNi6ADlv29cn4-81" style="edgeStyle=none;rounded=0;orthogonalLoop=1;jettySize=auto;html=1;entryX=0;entryY=0.5;entryDx=0;entryDy=0;fillColor=#e51400;strokeColor=#B20000;" parent="1" source="IXw6Qi-PNi6ADlv29cn4-23" target="IXw6Qi-PNi6ADlv29cn4-80" edge="1">
          <mxGeometry relative="1" as="geometry" />
        </mxCell>
        <mxCell id="9e4sZm5anjRUrG5Lg-NS-44" style="rounded=0;orthogonalLoop=1;jettySize=auto;html=1;entryX=0.5;entryY=0;entryDx=0;entryDy=0;entryPerimeter=0;" parent="1" source="IXw6Qi-PNi6ADlv29cn4-23" target="9e4sZm5anjRUrG5Lg-NS-40" edge="1">
          <mxGeometry relative="1" as="geometry" />
        </mxCell>
        <mxCell id="IXw6Qi-PNi6ADlv29cn4-23" value="Staff Penjualan" style="shape=umlActor;verticalLabelPosition=bottom;verticalAlign=top;html=1;fontSize=27;" parent="1" vertex="1">
          <mxGeometry x="470" y="-80" width="95" height="190" as="geometry" />
        </mxCell>
        <mxCell id="IXw6Qi-PNi6ADlv29cn4-55" style="edgeStyle=orthogonalEdgeStyle;rounded=0;orthogonalLoop=1;jettySize=auto;html=1;" parent="1" source="IXw6Qi-PNi6ADlv29cn4-24" target="IXw6Qi-PNi6ADlv29cn4-13" edge="1">
          <mxGeometry relative="1" as="geometry">
            <Array as="points">
              <mxPoint x="280" y="1055" />
              <mxPoint x="280" y="-240" />
              <mxPoint x="398" y="-240" />
              <mxPoint x="398" y="-559" />
            </Array>
          </mxGeometry>
        </mxCell>
        <mxCell id="IXw6Qi-PNi6ADlv29cn4-65" style="edgeStyle=none;rounded=0;orthogonalLoop=1;jettySize=auto;html=1;fillColor=#d80073;strokeColor=#A50040;" parent="1" source="IXw6Qi-PNi6ADlv29cn4-24" target="IXw6Qi-PNi6ADlv29cn4-50" edge="1">
          <mxGeometry relative="1" as="geometry" />
        </mxCell>
        <mxCell id="IXw6Qi-PNi6ADlv29cn4-83" style="edgeStyle=elbowEdgeStyle;rounded=0;orthogonalLoop=1;jettySize=auto;html=1;" parent="1" source="IXw6Qi-PNi6ADlv29cn4-24" target="IXw6Qi-PNi6ADlv29cn4-80" edge="1">
          <mxGeometry relative="1" as="geometry">
            <Array as="points">
              <mxPoint x="360" y="370" />
            </Array>
          </mxGeometry>
        </mxCell>
        <mxCell id="9e4sZm5anjRUrG5Lg-NS-46" style="rounded=0;orthogonalLoop=1;jettySize=auto;html=1;" parent="1" source="IXw6Qi-PNi6ADlv29cn4-24" target="9e4sZm5anjRUrG5Lg-NS-40" edge="1">
          <mxGeometry relative="1" as="geometry" />
        </mxCell>
        <mxCell id="ErWA6TdymM7Qu1k1ahxK-21" style="rounded=0;orthogonalLoop=1;jettySize=auto;html=1;entryX=0;entryY=0.5;entryDx=0;entryDy=0;strokeColor=#B85450;" parent="1" source="IXw6Qi-PNi6ADlv29cn4-24" target="ErWA6TdymM7Qu1k1ahxK-19" edge="1">
          <mxGeometry relative="1" as="geometry" />
        </mxCell>
        <mxCell id="ErWA6TdymM7Qu1k1ahxK-22" style="rounded=0;orthogonalLoop=1;jettySize=auto;html=1;entryX=0;entryY=0.5;entryDx=0;entryDy=0;strokeColor=#B85450;" parent="1" source="IXw6Qi-PNi6ADlv29cn4-24" target="ErWA6TdymM7Qu1k1ahxK-20" edge="1">
          <mxGeometry relative="1" as="geometry">
            <Array as="points">
              <mxPoint x="720" y="1230" />
              <mxPoint x="1250" y="1290" />
            </Array>
          </mxGeometry>
        </mxCell>
        <mxCell id="IXw6Qi-PNi6ADlv29cn4-24" value="Staff Produksi Barang" style="shape=umlActor;verticalLabelPosition=bottom;verticalAlign=top;html=1;fontSize=27;" parent="1" vertex="1">
          <mxGeometry x="450" y="960" width="95" height="190" as="geometry" />
        </mxCell>
        <mxCell id="IXw6Qi-PNi6ADlv29cn4-25" value="Memperbaharui informasi Stok Barang" style="ellipse;whiteSpace=wrap;html=1;fontSize=20;fillColor=#dae8fc;strokeColor=#6c8ebf;" parent="1" vertex="1">
          <mxGeometry x="940" y="344" width="170" height="106" as="geometry" />
        </mxCell>
        <mxCell id="IXw6Qi-PNi6ADlv29cn4-27" value="Aplikasi Manajemen Produk untuk Penjualan Tas Kulit" style="text;html=1;strokeColor=none;fillColor=none;align=center;verticalAlign=middle;whiteSpace=wrap;rounded=0;fontSize=31;" parent="1" vertex="1">
          <mxGeometry x="910" y="-710" width="530" height="30" as="geometry" />
        </mxCell>
        <mxCell id="IXw6Qi-PNi6ADlv29cn4-28" value="&amp;nbsp;Memperbaharui Informasi Stok Bahan Baku Barang" style="ellipse;whiteSpace=wrap;html=1;fontSize=20;fillColor=#dae8fc;strokeColor=#6c8ebf;" parent="1" vertex="1">
          <mxGeometry x="970" y="940" width="200" height="140" as="geometry" />
        </mxCell>
        <mxCell id="IXw6Qi-PNi6ADlv29cn4-29" value="Memperbaharui Informasi Supplier&amp;nbsp;" style="ellipse;whiteSpace=wrap;html=1;fontSize=20;fillColor=#dae8fc;strokeColor=#6c8ebf;" parent="1" vertex="1">
          <mxGeometry x="1290" y="700" width="210" height="140" as="geometry" />
        </mxCell>
        <mxCell id="IXw6Qi-PNi6ADlv29cn4-43" value="&lt;font style=&quot;font-size: 20px;&quot;&gt;&amp;lt;&amp;lt;Include&amp;gt;&amp;gt;&lt;/font&gt;" style="edgeStyle=none;rounded=0;orthogonalLoop=1;jettySize=auto;html=1;dashed=1;endArrow=none;endFill=0;startArrow=classic;startFill=1;" parent="1" source="IXw6Qi-PNi6ADlv29cn4-30" target="IXw6Qi-PNi6ADlv29cn4-29" edge="1">
          <mxGeometry x="-0.0104" y="-2" relative="1" as="geometry">
            <Array as="points" />
            <mxPoint x="1" as="offset" />
          </mxGeometry>
        </mxCell>
        <mxCell id="IXw6Qi-PNi6ADlv29cn4-30" value="Melihat&lt;br&gt;Informasi Supplier&amp;nbsp;" style="ellipse;whiteSpace=wrap;html=1;fontSize=20;fillColor=#dae8fc;strokeColor=#6c8ebf;" parent="1" vertex="1">
          <mxGeometry x="1170" y="520" width="210" height="140" as="geometry" />
        </mxCell>
        <mxCell id="IXw6Qi-PNi6ADlv29cn4-49" value="Melihat Informasi Stok Barang" style="ellipse;whiteSpace=wrap;html=1;fontSize=20;" parent="1" vertex="1">
          <mxGeometry x="690" y="280" width="250" height="140" as="geometry" />
        </mxCell>
        <mxCell id="IXw6Qi-PNi6ADlv29cn4-50" value="Melihat&lt;br&gt;Informasi Bahan Baku&amp;nbsp;" style="ellipse;whiteSpace=wrap;html=1;fontSize=20;" parent="1" vertex="1">
          <mxGeometry x="740" y="940" width="160" height="100" as="geometry" />
        </mxCell>
        <mxCell id="IXw6Qi-PNi6ADlv29cn4-79" style="edgeStyle=none;rounded=0;orthogonalLoop=1;jettySize=auto;html=1;fillColor=#e3c800;strokeColor=#B09500;" parent="1" source="IXw6Qi-PNi6ADlv29cn4-56" target="IXw6Qi-PNi6ADlv29cn4-78" edge="1">
          <mxGeometry relative="1" as="geometry" />
        </mxCell>
        <mxCell id="ZU9HFq3ehsjZUplSAfVW-8" style="rounded=0;orthogonalLoop=1;jettySize=auto;html=1;fillColor=#e3c800;strokeColor=#B09500;" parent="1" source="IXw6Qi-PNi6ADlv29cn4-56" target="IXw6Qi-PNi6ADlv29cn4-80" edge="1">
          <mxGeometry relative="1" as="geometry" />
        </mxCell>
        <mxCell id="IXw6Qi-PNi6ADlv29cn4-56" value="Admin" style="shape=umlActor;verticalLabelPosition=bottom;verticalAlign=top;html=1;fontSize=27;" parent="1" vertex="1">
          <mxGeometry x="1750" y="-660" width="95" height="190" as="geometry" />
        </mxCell>
        <mxCell id="IXw6Qi-PNi6ADlv29cn4-68" value="Menambahkan&lt;br&gt;&amp;nbsp;informasi Stok Barang" style="ellipse;whiteSpace=wrap;html=1;fontSize=20;fillColor=#dae8fc;strokeColor=#6c8ebf;" parent="1" vertex="1">
          <mxGeometry x="880" y="540" width="150" height="110" as="geometry" />
        </mxCell>
        <mxCell id="IXw6Qi-PNi6ADlv29cn4-71" value="Melihat Nota" style="ellipse;whiteSpace=wrap;html=1;fontSize=20;fillColor=#ffe6cc;strokeColor=#d79b00;" parent="1" vertex="1">
          <mxGeometry x="720" y="-20" width="130" height="90" as="geometry" />
        </mxCell>
        <mxCell id="IXw6Qi-PNi6ADlv29cn4-72" value="Melihat status Pengembalian Barang" style="ellipse;whiteSpace=wrap;html=1;fontSize=20;fillColor=#ffe6cc;strokeColor=#d79b00;" parent="1" vertex="1">
          <mxGeometry x="830" y="-130" width="220" height="90" as="geometry" />
        </mxCell>
        <mxCell id="sp5UHCxgLKAjH49ryfdU-2" style="edgeStyle=orthogonalEdgeStyle;rounded=0;orthogonalLoop=1;jettySize=auto;html=1;entryX=0.705;entryY=0.078;entryDx=0;entryDy=0;entryPerimeter=0;dashed=1;" parent="1" source="IXw6Qi-PNi6ADlv29cn4-73" target="IXw6Qi-PNi6ADlv29cn4-72" edge="1">
          <mxGeometry relative="1" as="geometry" />
        </mxCell>
        <mxCell id="sp5UHCxgLKAjH49ryfdU-3" value="&amp;lt;&amp;lt;Extends&amp;gt;&amp;gt;" style="edgeLabel;html=1;align=center;verticalAlign=middle;resizable=0;points=[];fontStyle=1;fontSize=17;" parent="sp5UHCxgLKAjH49ryfdU-2" vertex="1" connectable="0">
          <mxGeometry x="-0.299" y="3" relative="1" as="geometry">
            <mxPoint as="offset" />
          </mxGeometry>
        </mxCell>
        <mxCell id="IXw6Qi-PNi6ADlv29cn4-73" value="Melihat &lt;br&gt;Komplain Pembeli" style="ellipse;whiteSpace=wrap;html=1;fontSize=20;fillColor=#ffe6cc;strokeColor=#d79b00;" parent="1" vertex="1">
          <mxGeometry x="990" y="-290" width="190" height="110" as="geometry" />
        </mxCell>
        <mxCell id="IXw6Qi-PNi6ADlv29cn4-78" value="Registerasi &lt;br&gt;Staff" style="ellipse;whiteSpace=wrap;html=1;fontSize=20;fillColor=#f5f5f5;fontColor=#333333;strokeColor=#666666;" parent="1" vertex="1">
          <mxGeometry x="1180" y="-430" width="160" height="110" as="geometry" />
        </mxCell>
        <mxCell id="IXw6Qi-PNi6ADlv29cn4-80" value="Log out" style="ellipse;whiteSpace=wrap;html=1;fontSize=20;fillColor=#f5f5f5;fontColor=#333333;strokeColor=#666666;" parent="1" vertex="1">
          <mxGeometry x="820" y="-450" width="160" height="110" as="geometry" />
        </mxCell>
        <mxCell id="ZU9HFq3ehsjZUplSAfVW-5" style="edgeStyle=none;rounded=0;orthogonalLoop=1;jettySize=auto;html=1;exitX=0.11;exitY=0.353;exitDx=0;exitDy=0;exitPerimeter=0;fillColor=#e3c800;strokeColor=#B09500;" parent="1" source="IXw6Qi-PNi6ADlv29cn4-56" target="IXw6Qi-PNi6ADlv29cn4-13" edge="1">
          <mxGeometry relative="1" as="geometry">
            <mxPoint x="2010" y="-559" as="sourcePoint" />
            <mxPoint x="1562" y="-409" as="targetPoint" />
          </mxGeometry>
        </mxCell>
        <mxCell id="9e4sZm5anjRUrG5Lg-NS-4" style="edgeStyle=orthogonalEdgeStyle;rounded=0;orthogonalLoop=1;jettySize=auto;html=1;dashed=1;" parent="1" source="9e4sZm5anjRUrG5Lg-NS-1" target="IXw6Qi-PNi6ADlv29cn4-70" edge="1">
          <mxGeometry relative="1" as="geometry">
            <Array as="points" />
          </mxGeometry>
        </mxCell>
        <mxCell id="9e4sZm5anjRUrG5Lg-NS-5" value="&amp;lt;&amp;lt;Include&amp;gt;&amp;gt;" style="edgeLabel;html=1;align=center;verticalAlign=middle;resizable=0;points=[];fontSize=20;" parent="9e4sZm5anjRUrG5Lg-NS-4" vertex="1" connectable="0">
          <mxGeometry x="0.0946" y="-2" relative="1" as="geometry">
            <mxPoint x="8" y="-4" as="offset" />
          </mxGeometry>
        </mxCell>
        <mxCell id="9e4sZm5anjRUrG5Lg-NS-1" value="Memperbaharui Informasi Pesanan " style="ellipse;whiteSpace=wrap;html=1;fontSize=20;fillColor=#ffe6cc;strokeColor=#d79b00;" parent="1" vertex="1">
          <mxGeometry x="1255" y="124" width="170" height="100" as="geometry" />
        </mxCell>
        <mxCell id="9e4sZm5anjRUrG5Lg-NS-6" value="Memperbaharui Informasi Nota " style="ellipse;whiteSpace=wrap;html=1;fontSize=20;fillColor=#ffe6cc;strokeColor=#d79b00;" parent="1" vertex="1">
          <mxGeometry x="1230" y="-30" width="150" height="100" as="geometry" />
        </mxCell>
        <mxCell id="9e4sZm5anjRUrG5Lg-NS-8" style="edgeStyle=orthogonalEdgeStyle;rounded=0;orthogonalLoop=1;jettySize=auto;html=1;dashed=1;exitX=0;exitY=0.5;exitDx=0;exitDy=0;" parent="1" source="9e4sZm5anjRUrG5Lg-NS-6" target="IXw6Qi-PNi6ADlv29cn4-71" edge="1">
          <mxGeometry relative="1" as="geometry">
            <mxPoint x="1337.5" y="-18.25" as="sourcePoint" />
            <mxPoint x="1182.5" y="-82.25" as="targetPoint" />
          </mxGeometry>
        </mxCell>
        <mxCell id="9e4sZm5anjRUrG5Lg-NS-9" value="&amp;lt;&amp;lt;Include&amp;gt;&amp;gt;" style="edgeLabel;html=1;align=center;verticalAlign=middle;resizable=0;points=[];fontSize=20;" parent="9e4sZm5anjRUrG5Lg-NS-8" vertex="1" connectable="0">
          <mxGeometry x="0.0946" y="-2" relative="1" as="geometry">
            <mxPoint as="offset" />
          </mxGeometry>
        </mxCell>
        <mxCell id="9e4sZm5anjRUrG5Lg-NS-10" value="mengkonfirmasi komplain pembeli" style="ellipse;whiteSpace=wrap;html=1;fontSize=20;fillColor=#ffe6cc;strokeColor=#d79b00;" parent="1" vertex="1">
          <mxGeometry x="1380" y="-240" width="200" height="80" as="geometry" />
        </mxCell>
        <mxCell id="9e4sZm5anjRUrG5Lg-NS-11" style="edgeStyle=orthogonalEdgeStyle;rounded=0;orthogonalLoop=1;jettySize=auto;html=1;dashed=1;" parent="1" source="9e4sZm5anjRUrG5Lg-NS-10" target="IXw6Qi-PNi6ADlv29cn4-73" edge="1">
          <mxGeometry relative="1" as="geometry">
            <mxPoint x="1210" y="135" as="sourcePoint" />
            <mxPoint x="1070" y="90" as="targetPoint" />
          </mxGeometry>
        </mxCell>
        <mxCell id="9e4sZm5anjRUrG5Lg-NS-12" value="&amp;lt;&amp;lt;Include&amp;gt;&amp;gt;" style="edgeLabel;html=1;align=center;verticalAlign=middle;resizable=0;points=[];fontSize=20;" parent="9e4sZm5anjRUrG5Lg-NS-11" vertex="1" connectable="0">
          <mxGeometry x="0.0946" y="-2" relative="1" as="geometry">
            <mxPoint as="offset" />
          </mxGeometry>
        </mxCell>
        <mxCell id="9e4sZm5anjRUrG5Lg-NS-15" value="mengkonfirmasi Pengembalian Barang" style="ellipse;whiteSpace=wrap;html=1;fontSize=20;fillColor=#ffe6cc;strokeColor=#d79b00;" parent="1" vertex="1">
          <mxGeometry x="1400" y="-100" width="220" height="100" as="geometry" />
        </mxCell>
        <mxCell id="9e4sZm5anjRUrG5Lg-NS-17" style="edgeStyle=orthogonalEdgeStyle;rounded=0;orthogonalLoop=1;jettySize=auto;html=1;dashed=1;" parent="1" source="9e4sZm5anjRUrG5Lg-NS-15" target="IXw6Qi-PNi6ADlv29cn4-72" edge="1">
          <mxGeometry relative="1" as="geometry">
            <mxPoint x="1270" y="-185" as="sourcePoint" />
            <mxPoint x="1150" y="-215" as="targetPoint" />
          </mxGeometry>
        </mxCell>
        <mxCell id="9e4sZm5anjRUrG5Lg-NS-18" value="&amp;lt;&amp;lt;Include&amp;gt;&amp;gt;" style="edgeLabel;html=1;align=center;verticalAlign=middle;resizable=0;points=[];fontSize=20;" parent="9e4sZm5anjRUrG5Lg-NS-17" vertex="1" connectable="0">
          <mxGeometry x="0.0946" y="-2" relative="1" as="geometry">
            <mxPoint as="offset" />
          </mxGeometry>
        </mxCell>
        <mxCell id="IXw6Qi-PNi6ADlv29cn4-35" value="Menambah Informasi Supplier&amp;nbsp;" style="ellipse;whiteSpace=wrap;html=1;fontSize=20;fillColor=#dae8fc;strokeColor=#6c8ebf;" parent="1" vertex="1">
          <mxGeometry x="930" y="700" width="210" height="140" as="geometry" />
        </mxCell>
        <mxCell id="9e4sZm5anjRUrG5Lg-NS-21" style="edgeStyle=orthogonalEdgeStyle;rounded=0;orthogonalLoop=1;jettySize=auto;html=1;exitX=0.5;exitY=1;exitDx=0;exitDy=0;" parent="1" source="IXw6Qi-PNi6ADlv29cn4-27" target="IXw6Qi-PNi6ADlv29cn4-27" edge="1">
          <mxGeometry relative="1" as="geometry" />
        </mxCell>
        <mxCell id="9e4sZm5anjRUrG5Lg-NS-27" value="Membuat permintaan bahan baku" style="ellipse;whiteSpace=wrap;html=1;fontSize=20;fillColor=#f8cecc;strokeColor=#b85450;" parent="1" vertex="1">
          <mxGeometry x="830" y="1050" width="175" height="110" as="geometry" />
        </mxCell>
        <mxCell id="9e4sZm5anjRUrG5Lg-NS-29" style="edgeStyle=none;rounded=0;orthogonalLoop=1;jettySize=auto;html=1;fillColor=#d80073;strokeColor=#A50040;" parent="1" source="IXw6Qi-PNi6ADlv29cn4-24" target="9e4sZm5anjRUrG5Lg-NS-27" edge="1">
          <mxGeometry relative="1" as="geometry">
            <mxPoint x="445" y="1123" as="sourcePoint" />
            <mxPoint x="757" y="1045" as="targetPoint" />
          </mxGeometry>
        </mxCell>
        <mxCell id="9e4sZm5anjRUrG5Lg-NS-30" value="&lt;div&gt;Membuat permintaan barang tas kulit&lt;/div&gt;" style="ellipse;whiteSpace=wrap;html=1;fontSize=20;fillColor=#ffe6cc;strokeColor=#d79b00;" parent="1" vertex="1">
          <mxGeometry x="1190" y="290" width="210" height="100" as="geometry" />
        </mxCell>
        <mxCell id="9e4sZm5anjRUrG5Lg-NS-33" value="" style="edgeStyle=none;rounded=0;orthogonalLoop=1;jettySize=auto;html=1;fillColor=#e51400;strokeColor=#B20000;" parent="1" source="IXw6Qi-PNi6ADlv29cn4-23" target="9e4sZm5anjRUrG5Lg-NS-30" edge="1">
          <mxGeometry relative="1" as="geometry">
            <mxPoint x="565" y="39" as="sourcePoint" />
            <mxPoint x="1262" y="384" as="targetPoint" />
            <Array as="points">
              <mxPoint x="860" y="240" />
            </Array>
          </mxGeometry>
        </mxCell>
        <mxCell id="IXw6Qi-PNi6ADlv29cn4-70" value="Melihat Pesanan" style="ellipse;whiteSpace=wrap;html=1;fontSize=20;fillColor=#ffe6cc;strokeColor=#d79b00;" parent="1" vertex="1">
          <mxGeometry x="890" y="80" width="170" height="90" as="geometry" />
        </mxCell>
        <mxCell id="9e4sZm5anjRUrG5Lg-NS-34" value="Membuat Nota" style="ellipse;whiteSpace=wrap;html=1;fontSize=20;fillColor=#ffe6cc;strokeColor=#d79b00;" parent="1" vertex="1">
          <mxGeometry x="1050" y="-60" width="140" height="70" as="geometry" />
        </mxCell>
        <mxCell id="9e4sZm5anjRUrG5Lg-NS-37" value="membuat Pesanan" style="ellipse;whiteSpace=wrap;html=1;fontSize=20;fillColor=#ffe6cc;strokeColor=#d79b00;" parent="1" vertex="1">
          <mxGeometry x="965" y="200" width="140" height="70" as="geometry" />
        </mxCell>
        <mxCell id="9e4sZm5anjRUrG5Lg-NS-39" style="edgeStyle=none;rounded=0;orthogonalLoop=1;jettySize=auto;html=1;fillColor=#e51400;strokeColor=#B20000;entryX=0;entryY=0.5;entryDx=0;entryDy=0;" parent="1" target="9e4sZm5anjRUrG5Lg-NS-37" edge="1">
          <mxGeometry relative="1" as="geometry">
            <mxPoint x="575" y="38" as="sourcePoint" />
            <mxPoint x="880" y="124" as="targetPoint" />
          </mxGeometry>
        </mxCell>
        <mxCell id="9e4sZm5anjRUrG5Lg-NS-40" value="Staff" style="shape=umlActor;verticalLabelPosition=bottom;verticalAlign=top;html=1;fontSize=27;" parent="1" vertex="1">
          <mxGeometry x="120" y="330" width="95" height="190" as="geometry" />
        </mxCell>
        <mxCell id="sp5UHCxgLKAjH49ryfdU-7" value="" style="endArrow=classic;dashed=1;html=1;rounded=0;endFill=1;" parent="1" source="IXw6Qi-PNi6ADlv29cn4-71" target="9e4sZm5anjRUrG5Lg-NS-34" edge="1">
          <mxGeometry width="50" height="50" relative="1" as="geometry">
            <mxPoint x="1070" y="-20" as="sourcePoint" />
            <mxPoint x="1120" y="-70" as="targetPoint" />
          </mxGeometry>
        </mxCell>
        <mxCell id="sp5UHCxgLKAjH49ryfdU-8" value="&amp;lt;&amp;lt;Extends&amp;gt;&amp;gt;" style="edgeLabel;html=1;align=center;verticalAlign=middle;resizable=0;points=[];fontSize=15;" parent="sp5UHCxgLKAjH49ryfdU-7" vertex="1" connectable="0">
          <mxGeometry x="0.1546" y="-4" relative="1" as="geometry">
            <mxPoint as="offset" />
          </mxGeometry>
        </mxCell>
        <mxCell id="ErWA6TdymM7Qu1k1ahxK-3" style="edgeStyle=orthogonalEdgeStyle;rounded=0;orthogonalLoop=1;jettySize=auto;html=1;entryX=0.992;entryY=0.669;entryDx=0;entryDy=0;entryPerimeter=0;dashed=1;" parent="1" source="ErWA6TdymM7Qu1k1ahxK-2" target="IXw6Qi-PNi6ADlv29cn4-71" edge="1">
          <mxGeometry relative="1" as="geometry" />
        </mxCell>
        <mxCell id="ErWA6TdymM7Qu1k1ahxK-2" value="Memperbaharui Informasi Nota " style="ellipse;whiteSpace=wrap;html=1;fontSize=20;fillColor=#ffe6cc;strokeColor=#d79b00;" parent="1" vertex="1">
          <mxGeometry x="1420" y="60" width="150" height="80" as="geometry" />
        </mxCell>
        <mxCell id="ErWA6TdymM7Qu1k1ahxK-5" value="&amp;lt;&amp;lt;Include&amp;gt;&amp;gt;" style="edgeLabel;html=1;align=center;verticalAlign=middle;resizable=0;points=[];fontSize=20;" parent="1" vertex="1" connectable="0">
          <mxGeometry x="1035" y="40" as="geometry">
            <mxPoint x="88" y="18" as="offset" />
          </mxGeometry>
        </mxCell>
        <mxCell id="ErWA6TdymM7Qu1k1ahxK-7" style="edgeStyle=orthogonalEdgeStyle;rounded=0;orthogonalLoop=1;jettySize=auto;html=1;entryX=0.959;entryY=0.781;entryDx=0;entryDy=0;entryPerimeter=0;dashed=1;" parent="1" source="ErWA6TdymM7Qu1k1ahxK-6" target="IXw6Qi-PNi6ADlv29cn4-70" edge="1">
          <mxGeometry relative="1" as="geometry">
            <Array as="points">
              <mxPoint x="1120" y="240" />
              <mxPoint x="1120" y="150" />
            </Array>
          </mxGeometry>
        </mxCell>
        <mxCell id="ErWA6TdymM7Qu1k1ahxK-6" value="Memperbaharui Informasi Pesanan " style="ellipse;whiteSpace=wrap;html=1;fontSize=20;fillColor=#ffe6cc;strokeColor=#d79b00;" parent="1" vertex="1">
          <mxGeometry x="1440" y="224" width="170" height="100" as="geometry" />
        </mxCell>
        <mxCell id="ErWA6TdymM7Qu1k1ahxK-8" value="&amp;lt;&amp;lt;Include&amp;gt;&amp;gt;" style="edgeLabel;html=1;align=center;verticalAlign=middle;resizable=0;points=[];fontSize=20;" parent="1" vertex="1" connectable="0">
          <mxGeometry x="1240" y="240" as="geometry" />
        </mxCell>
        <mxCell id="ErWA6TdymM7Qu1k1ahxK-9" value="Mengapus informasi Stok Barang" style="ellipse;whiteSpace=wrap;html=1;fontSize=20;fillColor=#dae8fc;strokeColor=#6c8ebf;" parent="1" vertex="1">
          <mxGeometry x="1100" y="414" width="160" height="106" as="geometry" />
        </mxCell>
        <mxCell id="ErWA6TdymM7Qu1k1ahxK-15" style="rounded=0;orthogonalLoop=1;jettySize=auto;html=1;entryX=1;entryY=0.5;entryDx=0;entryDy=0;dashed=1;" parent="1" source="ErWA6TdymM7Qu1k1ahxK-11" target="IXw6Qi-PNi6ADlv29cn4-30" edge="1">
          <mxGeometry relative="1" as="geometry" />
        </mxCell>
        <mxCell id="ErWA6TdymM7Qu1k1ahxK-11" value="Mengapus Informasi Supplier&amp;nbsp;" style="ellipse;whiteSpace=wrap;html=1;fontSize=20;fillColor=#dae8fc;strokeColor=#6c8ebf;" parent="1" vertex="1">
          <mxGeometry x="1520" y="410" width="160" height="95" as="geometry" />
        </mxCell>
        <mxCell id="ErWA6TdymM7Qu1k1ahxK-13" value="&lt;span style=&quot;color: rgb(0, 0, 0); font-family: Helvetica; font-size: 20px; font-style: normal; font-variant-ligatures: normal; font-variant-caps: normal; font-weight: 400; letter-spacing: normal; orphans: 2; text-align: center; text-indent: 0px; text-transform: none; widows: 2; word-spacing: 0px; -webkit-text-stroke-width: 0px; background-color: rgb(255, 255, 255); text-decoration-thickness: initial; text-decoration-style: initial; text-decoration-color: initial; float: none; display: inline !important;&quot;&gt;&amp;lt;&amp;lt;Include&amp;gt;&amp;gt;&lt;/span&gt;" style="text;whiteSpace=wrap;html=1;" parent="1" vertex="1">
          <mxGeometry x="1400" y="520" width="140" height="50" as="geometry" />
        </mxCell>
        <mxCell id="ErWA6TdymM7Qu1k1ahxK-16" value="&amp;nbsp;Menghapus Informasi Stok Bahan Baku Barang" style="ellipse;whiteSpace=wrap;html=1;fontSize=20;fillColor=#dae8fc;strokeColor=#6c8ebf;" parent="1" vertex="1">
          <mxGeometry x="1190" y="900" width="230" height="120" as="geometry" />
        </mxCell>
        <mxCell id="ErWA6TdymM7Qu1k1ahxK-19" value="&amp;nbsp;Memperbaharui Permintaan&amp;nbsp; Bahan Baku&amp;nbsp;" style="ellipse;whiteSpace=wrap;html=1;fontSize=20;fillColor=#F8CECC;strokeColor=#B85450;" parent="1" vertex="1">
          <mxGeometry x="1050" y="1130" width="190" height="110" as="geometry" />
        </mxCell>
        <mxCell id="ErWA6TdymM7Qu1k1ahxK-20" value="&amp;nbsp;Menghapus Permintaan&amp;nbsp; Bahan Baku&amp;nbsp;" style="ellipse;whiteSpace=wrap;html=1;fontSize=20;fillColor=#F8CECC;strokeColor=#B85450;" parent="1" vertex="1">
          <mxGeometry x="1375" y="1050" width="190" height="110" as="geometry" />
        </mxCell>
      </root>
    </mxGraphModel>
  </diagram>
</mxfile>
